<?xml version="1.0" standalone="no"?>
<!DOCTYPE svg PUBLIC "-//W3C//DTD SVG 20010904//EN"
 "http://www.w3.org/TR/2001/REC-SVG-20010904/DTD/svg10.dtd">
<svg version="1.0" xmlns="http://www.w3.org/2000/svg"
 width="976.000000pt" height="976.000000pt" viewBox="0 0 976.000000 976.000000"
 preserveAspectRatio="xMidYMid meet">
<metadata>
Created by potrace 1.11, written by Peter Selinger 2001-2013
</metadata>
<g transform="translate(0.000000,976.000000) scale(0.100000,-0.100000)"
fill="#000000" stroke="none">
<path d="M4307 8504 c-1 -1 -54 -5 -117 -9 -63 -3 -128 -8 -145 -10 -16 -3
-55 -7 -85 -10 -53 -6 -98 -13 -232 -36 -35 -5 -110 -21 -168 -35 -58 -14
-112 -26 -120 -27 -8 -2 -20 -6 -26 -9 -6 -4 -21 -9 -35 -12 -41 -9 -163 -45
-184 -55 -11 -5 -67 -25 -124 -46 -190 -68 -301 -152 -431 -324 -14 -18 -36
-47 -50 -65 -14 -17 -39 -49 -55 -71 -16 -22 -31 -42 -35 -45 -3 -3 -30 -41
-60 -85 -29 -44 -57 -82 -60 -85 -3 -3 -51 -72 -106 -155 -54 -82 -102 -151
-106 -153 -5 -2 -8 -8 -8 -13 0 -5 -16 -32 -35 -59 -19 -27 -35 -52 -35 -56 0
-3 -11 -20 -25 -38 -14 -18 -25 -38 -25 -44 0 -6 -4 -12 -8 -14 -14 -5 -125
-188 -173 -283 -17 -33 -34 -67 -39 -75 -28 -44 -134 -309 -145 -360 -2 -8 -9
-35 -16 -60 -7 -25 -14 -52 -15 -62 0 -9 -5 -25 -9 -35 -8 -18 -10 -32 -20
-113 -21 -162 -24 -198 -40 -390 -2 -36 -7 -90 -9 -120 -3 -30 -8 -93 -11
-140 -3 -47 -8 -107 -10 -135 -2 -27 -7 -99 -11 -160 -3 -60 -8 -132 -11 -160
-7 -76 -7 -425 0 -565 12 -207 16 -273 21 -310 3 -19 8 -57 11 -85 3 -27 8
-57 10 -65 3 -8 6 -31 9 -50 5 -46 14 -80 39 -165 11 -38 21 -72 22 -75 1 -3
7 -18 13 -33 7 -16 12 -31 12 -34 0 -7 94 -197 100 -203 3 -3 19 -27 35 -55
29 -51 102 -158 142 -211 13 -16 67 -90 120 -164 54 -74 129 -176 168 -226 38
-50 80 -104 93 -121 93 -124 397 -423 430 -423 6 0 12 -4 12 -10 0 -5 4 -10 8
-10 5 0 49 -24 99 -54 140 -85 426 -226 456 -226 10 0 17 -4 17 -10 0 -5 7
-10 15 -10 8 0 23 -5 33 -10 40 -23 413 -150 442 -150 9 0 20 -3 24 -7 4 -4
19 -9 34 -11 15 -2 46 -10 69 -17 23 -8 52 -17 65 -19 13 -3 55 -12 93 -21
168 -37 161 -36 270 -55 86 -15 99 -16 155 -24 25 -3 56 -8 69 -11 13 -2 49
-7 80 -10 31 -3 67 -8 81 -10 14 -3 59 -7 100 -10 41 -3 104 -8 140 -12 160
-14 852 -5 880 12 3 2 29 6 59 10 30 4 63 9 75 12 19 4 42 9 86 17 8 1 38 13
65 26 28 13 52 24 55 25 3 1 32 14 65 30 124 58 280 125 292 125 7 0 13 5 13
10 0 6 5 10 11 10 16 0 180 71 329 142 69 33 130 60 135 61 6 1 12 5 15 8 3 3
37 23 75 44 112 60 156 86 223 132 35 24 65 43 68 43 7 0 128 93 145 113 9 9
19 17 22 17 7 0 120 112 172 171 65 73 138 186 193 299 29 58 52 111 52 118 0
6 3 12 8 12 4 0 13 15 21 33 7 17 21 50 31 72 10 23 37 86 60 140 24 55 50
118 60 140 10 22 21 51 25 65 4 14 13 35 21 47 8 12 16 30 17 40 5 21 21 63
47 118 10 22 22 54 26 70 4 17 10 35 14 40 4 6 22 55 39 110 18 55 34 107 38
115 7 18 2 -3 58 220 25 102 48 202 51 223 3 21 9 50 15 64 5 13 7 28 4 33 -3
5 -1 11 4 15 5 3 9 13 9 23 0 9 19 103 42 207 24 105 44 199 46 210 1 11 3 20
4 20 2 0 5 14 19 90 6 33 14 71 17 85 3 14 7 88 9 165 7 285 -54 503 -243 866
-77 149 -93 178 -149 270 -21 35 -44 77 -52 92 -8 15 -18 27 -23 27 -4 0 -8 5
-8 11 0 13 -267 409 -289 429 -3 3 -12 16 -20 30 -24 42 -123 160 -134 160 -6
0 -8 3 -4 6 10 11 -176 181 -215 196 -10 4 -18 12 -18 18 0 6 -4 9 -9 6 -5 -4
-11 -3 -13 1 -5 12 -125 93 -136 93 -6 0 -12 4 -14 8 -7 17 -245 152 -465 264
-128 65 -233 116 -233 114 0 -3 -36 13 -80 35 -44 21 -83 39 -86 39 -4 0 -27
10 -53 23 -25 13 -49 24 -54 25 -8 1 -33 12 -141 61 -37 17 -74 31 -81 31 -7
0 -18 7 -25 15 -7 9 -15 13 -18 11 -2 -3 -14 0 -26 6 -11 7 -23 13 -26 13 -6
2 -39 15 -144 60 -393 166 -756 271 -1071 311 -92 11 -578 26 -588 18z m1649
-727 c4 -4 15 -7 24 -7 16 0 58 -17 165 -64 17 -8 46 -21 65 -29 123 -52 191
-82 235 -102 28 -12 75 -33 105 -46 130 -55 535 -271 560 -299 3 -3 17 -13 31
-22 14 -9 49 -38 79 -65 48 -44 76 -71 135 -136 30 -32 200 -260 221 -296 10
-17 22 -31 26 -31 4 0 8 -5 8 -10 0 -6 26 -50 58 -98 32 -48 69 -107 83 -132
13 -25 27 -47 30 -50 11 -10 149 -266 149 -277 0 -6 3 -13 8 -15 4 -1 30 -52
59 -113 48 -103 80 -197 88 -255 2 -14 4 -25 5 -25 16 0 12 -361 -4 -490 -13
-98 -19 -134 -28 -170 -5 -22 -12 -47 -14 -55 -2 -8 -10 -40 -19 -70 -9 -30
-18 -62 -20 -70 -2 -8 -20 -71 -40 -140 -20 -69 -37 -132 -39 -140 -2 -8 -11
-41 -21 -72 -9 -32 -17 -61 -17 -65 0 -5 -6 -24 -14 -43 -7 -19 -27 -82 -43
-140 -16 -58 -41 -141 -54 -185 -93 -298 -126 -403 -184 -585 -36 -113 -75
-225 -86 -250 -31 -68 -105 -179 -156 -233 -47 -49 -159 -130 -221 -159 -169
-79 -231 -108 -235 -108 -2 0 -34 -14 -72 -31 -120 -54 -128 -57 -143 -61 -8
-2 -17 -5 -20 -8 -4 -5 -216 -94 -250 -105 -3 -1 -16 -6 -30 -12 -14 -6 -45
-19 -70 -28 -25 -9 -58 -23 -75 -30 -16 -7 -75 -29 -130 -49 -55 -21 -111 -42
-125 -48 -14 -6 -29 -13 -35 -14 -5 -2 -68 -24 -140 -49 -266 -95 -385 -126
-497 -129 -16 -1 -28 -3 -28 -6 0 -15 -540 -20 -725 -7 -139 10 -212 16 -250
22 -16 3 -57 8 -90 10 -33 3 -71 7 -85 10 -35 7 -63 12 -155 25 -82 12 -102
16 -145 25 -14 3 -36 7 -50 10 -14 3 -38 8 -55 12 -16 3 -37 8 -45 9 -69 12
-87 16 -100 21 -8 3 -22 7 -30 9 -53 10 -70 14 -110 24 -187 46 -433 128 -556
185 -114 52 -173 99 -300 236 -82 89 -254 329 -236 329 4 0 2 4 -4 8 -21 14
-162 314 -152 325 1 2 -2 10 -8 18 -6 8 -17 34 -24 59 -7 25 -18 51 -23 58
-14 18 -16 231 -3 262 24 56 35 60 162 65 662 27 1405 24 1984 -9 58 -3 150
-8 205 -11 55 -4 132 -8 170 -11 114 -8 175 -12 266 -18 47 -3 117 -8 155 -12
38 -3 89 -7 114 -9 46 -2 152 -12 225 -20 22 -3 76 -7 120 -11 44 -3 94 -7
110 -9 17 -1 62 -6 100 -9 39 -4 90 -9 115 -12 25 -3 63 -7 85 -9 41 -4 115
-12 195 -21 71 -8 110 -12 180 -18 64 -6 91 -9 180 -20 25 -3 68 -8 95 -10 28
-3 66 -7 85 -10 19 -3 60 -8 90 -11 51 -5 79 -8 169 -20 84 -11 141 85 117
195 -8 33 -52 133 -69 155 -56 75 -131 152 -187 194 -19 14 -37 29 -40 32 -3
3 -36 22 -75 42 -69 35 -148 61 -215 71 -19 3 -52 8 -72 11 -21 3 -55 8 -75
11 -21 3 -56 7 -78 10 -22 2 -49 6 -60 9 -32 7 -150 21 -240 30 -27 3 -66 7
-85 9 -19 3 -60 8 -90 11 -30 4 -71 8 -90 10 -19 3 -66 7 -105 10 -38 3 -81 8
-95 11 -14 3 -53 7 -86 9 -34 3 -79 7 -100 10 -22 3 -65 8 -96 10 -31 3 -79 7
-105 11 -26 3 -66 7 -88 8 -22 2 -67 7 -100 11 -62 7 -118 13 -195 20 -25 3
-61 7 -80 9 -19 3 -73 7 -120 11 -47 3 -96 8 -110 10 -26 4 -177 13 -345 21
-55 2 -323 6 -595 8 -507 5 -1035 18 -1035 25 0 1 -37 3 -83 6 -46 2 -87 7
-93 10 -5 4 -19 8 -31 10 -33 6 -66 53 -75 105 -14 89 -1 390 22 530 3 14 7
49 10 78 7 70 50 268 77 357 12 39 22 72 23 75 18 70 95 260 140 345 18 33 44
83 59 112 15 28 34 57 42 64 8 6 14 15 14 20 0 10 115 175 139 201 9 9 27 31
41 49 14 18 36 45 50 59 14 14 37 42 51 60 15 19 35 45 45 57 11 12 30 36 44
54 14 17 36 46 50 63 14 17 48 60 75 96 27 36 58 74 67 84 10 11 18 23 18 27
0 4 6 14 13 21 7 7 42 51 77 98 171 225 346 351 608 436 59 19 116 36 127 39
11 2 29 6 40 9 85 20 117 26 154 31 24 3 47 8 52 10 5 3 28 8 51 10 24 2 43 4
43 5 0 1 20 4 45 6 25 2 51 7 59 9 65 24 552 24 686 1 54 -10 99 -16 145 -21
25 -2 74 -8 110 -12 129 -16 255 -4 362 33 40 14 78 26 83 28 6 1 15 4 20 7 6
3 26 6 45 8 19 2 36 4 37 4 5 5 84 0 89 -6z"/>
<path d="M2820 5681 c0 -3 -24 -6 -52 -5 -140 2 -242 -104 -223 -230 8 -49 45
-146 57 -146 4 0 8 -5 8 -11 0 -13 105 -183 126 -204 8 -7 14 -16 14 -20 0 -4
6 -13 13 -20 6 -8 39 -52 72 -99 81 -114 95 -119 200 -72 29 14 72 28 96 31
24 4 46 8 49 10 3 2 23 6 45 9 70 11 165 49 203 82 35 30 37 35 38 95 0 35 -3
71 -7 79 -4 8 -26 53 -47 100 -101 214 -219 338 -357 375 -59 16 -52 15 -207
29 -16 1 -28 0 -28 -3z"/>
<path d="M5770 5467 c-60 -31 -83 -111 -64 -222 35 -201 158 -362 361 -472 89
-48 257 -90 346 -86 9 0 32 1 51 2 19 1 44 9 56 19 l23 19 -18 59 c-10 32 -22
63 -27 69 -4 5 -8 17 -8 27 0 10 -4 26 -10 36 -10 18 -46 140 -54 182 -9 55
-20 87 -42 131 -23 47 -90 119 -110 119 -7 0 -14 4 -16 8 -5 12 -109 53 -119
46 -5 -3 -9 -1 -9 4 0 5 -6 9 -12 10 -7 0 -31 6 -53 12 -22 6 -58 16 -80 21
-22 5 -47 12 -55 16 -28 11 -137 11 -160 0z"/>
</g>
</svg>
